<svg width="116" height="117" viewBox="0 0 116 117" fill="none" xmlns="http://www.w3.org/2000/svg">
<path d="M70 28.64V28.46L69.45 33.11H45.65L45.1 28.46V28.67C15.68 33.07 0 52 0 60.33C0 69.33 20.46 90.7 52.76 92.76L49.82 68.1H65.28L62.34 92.8C96.41 91.01 115.6 69.4 115.6 60.33C115.59 51.98 99.04 32.98 70 28.64ZM55.73 39.65H59.37H68.67L67.8 46.94H47.3L46.43 39.65H55.73ZM13.2 73.27C12.8 69.63 12.59 65.87 12.59 62.04C12.59 59.74 12.67 57.47 12.81 55.23C9.87 55.67 7.02 56.14 4.28 56.66C6.91 55.43 9.82 54.3 12.96 53.28C13.17 50.83 13.46 48.42 13.83 46.06C17.37 43.12 21.85 40.23 27.24 37.82C26.26 41.73 25.5 45.84 25 50.1C31.58 48.73 38.78 47.77 46.41 47.29V52.29C38.85 52.54 31.56 53.03 24.64 53.74C24.42 56.45 24.31 59.22 24.31 62.03C24.31 68.96 24.99 75.62 26.24 81.84C21.02 79.26 16.65 76.25 13.2 73.27ZM49.04 61.56L48.08 53.49H67.02L66.06 61.56H49.04ZM89.27 82.25C90.57 75.91 91.28 69.11 91.28 62.04C91.28 59.25 91.17 56.5 90.95 53.81C83.88 53.07 76.43 52.56 68.69 52.3V47.3C76.51 47.79 83.89 48.79 90.6 50.21C90.11 45.98 89.37 41.9 88.39 38.01C93.76 40.46 98.24 43.38 101.79 46.34C102.15 48.66 102.43 51.03 102.63 53.44C105.58 54.42 108.31 55.5 110.8 56.66C108.21 56.17 105.52 55.72 102.77 55.31C102.91 57.52 102.99 59.77 102.99 62.04C102.99 66.09 102.76 70.05 102.31 73.89C98.88 76.83 94.51 79.76 89.27 82.25Z" fill="#087F5B"/>
<path d="M46.41 18.01C48.19 21.58 51.64 24.17 55.73 24.77V27.77C55.65 27.77 55.58 27.77 55.51 27.78H60.03C59.81 27.77 59.59 27.77 59.37 27.76V24.77C63.46 24.17 66.91 21.58 68.69 18.01V28.36L70 28.46V12.45C70 5.57 64.43 0 57.55 0C50.67 0 45.1 5.57 45.1 12.45V28.46L46.41 28.34V18.01ZM57.55 4.18C62.12 4.18 65.82 7.88 65.82 12.45C65.82 17.02 62.12 20.72 57.55 20.72C52.98 20.72 49.28 17.02 49.28 12.45C49.28 7.88 52.98 4.18 57.55 4.18Z" fill="#F76707"/>
<path d="M56.08 95.32V103.98V108.28H53.98V116.2H60.94V108.28H59.02V103.98V95.32H56.08Z" fill="#F76707"/>
<path d="M57.55 16.08C59.5548 16.08 61.18 14.4548 61.18 12.45C61.18 10.4452 59.5548 8.82001 57.55 8.82001C55.5452 8.82001 53.92 10.4452 53.92 12.45C53.92 14.4548 55.5452 16.08 57.55 16.08Z" fill="#F76707"/>
</svg>
