<svg width="484" height="117" viewBox="0 0 484 117" fill="none" xmlns="http://www.w3.org/2000/svg">
<path d="M70 28.64V28.46L69.45 33.11H45.65L45.1 28.46V28.67C15.68 33.07 0 52 0 60.33C0 69.33 20.46 90.7 52.76 92.76L49.82 68.1H65.28L62.34 92.8C96.41 91.01 115.6 69.4 115.6 60.33C115.59 51.98 99.04 32.98 70 28.64ZM55.73 39.65H59.37H68.67L67.8 46.94H47.3L46.43 39.65H55.73ZM13.2 73.27C12.8 69.63 12.59 65.87 12.59 62.04C12.59 59.74 12.67 57.47 12.81 55.23C9.87 55.67 7.02 56.14 4.28 56.66C6.91 55.43 9.82 54.3 12.96 53.28C13.17 50.83 13.46 48.42 13.83 46.06C17.37 43.12 21.85 40.23 27.24 37.82C26.26 41.73 25.5 45.84 25 50.1C31.58 48.73 38.78 47.77 46.41 47.29V52.29C38.85 52.54 31.56 53.03 24.64 53.74C24.42 56.45 24.31 59.22 24.31 62.03C24.31 68.96 24.99 75.62 26.24 81.84C21.02 79.26 16.65 76.25 13.2 73.27ZM49.04 61.56L48.08 53.49H67.02L66.06 61.56H49.04ZM89.27 82.25C90.57 75.91 91.28 69.11 91.28 62.04C91.28 59.25 91.17 56.5 90.95 53.81C83.88 53.07 76.43 52.56 68.69 52.3V47.3C76.51 47.79 83.89 48.79 90.6 50.21C90.11 45.98 89.37 41.9 88.39 38.01C93.76 40.46 98.24 43.38 101.79 46.34C102.15 48.66 102.43 51.03 102.63 53.44C105.58 54.42 108.31 55.5 110.8 56.66C108.21 56.17 105.52 55.72 102.77 55.31C102.91 57.52 102.99 59.77 102.99 62.04C102.99 66.09 102.76 70.05 102.31 73.89C98.88 76.83 94.51 79.76 89.27 82.25Z" fill="#30A46C"/>
<path d="M46.41 18.01C48.19 21.58 51.64 24.17 55.73 24.77V27.77C55.65 27.77 55.58 27.77 55.51 27.78H60.03C59.81 27.77 59.59 27.77 59.37 27.76V24.77C63.46 24.17 66.91 21.58 68.69 18.01V28.36L70 28.46V12.45C70 5.57 64.43 0 57.55 0C50.67 0 45.1 5.57 45.1 12.45V28.46L46.41 28.34V18.01ZM57.55 4.18C62.12 4.18 65.82 7.88 65.82 12.45C65.82 17.02 62.12 20.72 57.55 20.72C52.98 20.72 49.28 17.02 49.28 12.45C49.28 7.88 52.98 4.18 57.55 4.18Z" fill="#F1A10D"/>
<path d="M56.08 95.32V103.98V108.28H53.98V116.2H60.94V108.28H59.02V103.98V95.32H56.08Z" fill="#F1A10D"/>
<path d="M57.55 16.08C59.5548 16.08 61.18 14.4548 61.18 12.45C61.18 10.4452 59.5548 8.82001 57.55 8.82001C55.5452 8.82001 53.92 10.4452 53.92 12.45C53.92 14.4548 55.5452 16.08 57.55 16.08Z" fill="#F1A10D"/>
<path d="M148.24 63.11V76.95H141.32V63.11L128.3 40.91H136.18L144.73 56.29H144.87L153.57 40.91H161.55L148.24 63.11Z" fill="#30A46C"/>
<path d="M170.3 70.12L168.04 76.94H160.88L172.84 40.9H183.03L195.23 76.94H188.21L185.86 70.12H170.3ZM178.13 46.2H178.03L171.88 64.89H184.32L178.13 46.2Z" fill="#30A46C"/>
<path d="M204.94 65.03V76.95H198.02V40.91H216.42C224.3 41.1 227.33 43.55 227.33 51.72C227.33 57.05 227.04 60.95 220.94 61.86V62.05C225.84 62.48 227.04 65.13 227.04 70.22V76.95H220.12V70.22C220.12 67.19 218.87 65.08 215.56 65.03H204.94ZM214.07 59.12C219.16 59.12 220.41 58.11 220.41 52.83C220.41 47.74 219.5 46.82 214.55 46.82H204.94V59.12H214.07Z" fill="#30A46C"/>
<path d="M232.77 40.91H249.97C259.92 40.91 264.15 44.51 264.15 54.32V62.83C264.15 70.33 262.04 76.96 251.13 76.96H232.77V40.91ZM251.12 71.04C255.78 71.04 257.22 66.86 257.22 62.82V54.31C257.22 48.3 255.25 46.81 249.96 46.81H239.68V71.03H251.12V71.04Z" fill="#30A46C"/>
<path d="M274.53 65.46V67.14C274.53 71.27 276.31 71.56 282.7 71.56C288.99 71.56 289.86 70.41 289.86 66.23C289.86 61.09 287.12 61.76 281.74 61.47C273.96 60.99 267.81 61.28 267.81 50.8C267.81 40.9 274.06 40.61 282.71 40.61C290.06 40.61 296.07 40.85 296.07 50.32V51.47H289.15V50.32C289.15 46.43 287.56 46.28 282.71 46.28C275.84 46.28 274.73 46.95 274.73 50.8C274.73 55.22 275.64 55.37 282.66 55.8C293.76 56.47 296.79 57.05 296.79 66.23C296.79 76.37 291.99 77.23 282.71 77.23C274.73 77.23 267.62 77.47 267.62 67.14V65.46H274.53Z" fill="#30A46C"/>
<path d="M317.2 76.95H313.12V44.51H301.44V40.91H328.88V44.51H317.2V76.95Z" fill="#3CB179"/>
<path d="M347.62 40.62C356.61 40.72 359.34 43.7 359.34 52.73V65.56C359.34 74.06 356.26 77.24 347.62 77.24H342.77C334.12 77.24 331.05 74.07 331.05 65.56V52.73C331.05 43.7 333.79 40.72 342.77 40.62H347.62ZM342.77 44.23C336.72 44.23 335.13 45.72 335.13 52.73V65.56C335.13 72.72 337.48 73.58 342.77 73.63H347.62C352.91 73.58 355.26 72.72 355.26 65.56V52.73C355.26 45.72 353.67 44.23 347.62 44.23H342.77Z" fill="#3CB179"/>
<path d="M398.17 57.82V64.35C398.17 75.02 395.48 77.23 382.65 77.23C371.12 77.23 366.79 75.21 366.79 63.01V54.75C366.79 42.74 371.5 40.62 382.65 40.62C391.44 40.62 398.36 40.19 398.12 51.77H391.25C391.25 46.49 388.66 46.53 382.65 46.53C374.58 46.53 373.81 47.78 373.71 54.75V63.01C373.81 70.55 374.96 71.32 382.65 71.32C389.23 71.32 391.25 71.18 391.25 64.35V63.05H382.17V57.81H398.17V57.82Z" fill="#F1A10D"/>
<path d="M409.37 70.12L407.11 76.94H399.95L411.91 40.9H422.1L434.3 76.94H427.28L424.93 70.12H409.37ZM417.2 46.2H417.1L410.95 64.89H423.39L417.2 46.2Z" fill="#F1A10D"/>
<path d="M444.26 76.95H437.34V40.91H444.26V76.95Z" fill="#F1A10D"/>
<path d="M477.08 40.91H484V76.95H472.52L457.19 46.82H456.95L457.53 76.95H450.61V40.91H462.05L477.47 71.04H477.66L477.08 40.91Z" fill="#F1A10D"/>
</svg>
